<svg viewBox="0 0 800 600" xmlns="http://www.w3.org/2000/svg" role="img" aria-label="Citizens reporting issues in a city">
  <!-- Sky background -->
  <rect width="800" height="600" fill="#f0f9ff"/>

  <!-- Ground -->
  <rect x="0" y="480" width="800" height="120" fill="#e2e8f0"/>

  <!-- Building left -->
  <rect x="60" y="280" width="120" height="200" fill="#cbd5e1" rx="4"/>
  <rect x="70" y="295" width="30" height="35" fill="#93c5fd" rx="2"/>
  <rect x="115" y="295" width="30" height="35" fill="#93c5fd" rx="2"/>
  <rect x="70" y="345" width="30" height="35" fill="#93c5fd" rx="2"/>
  <rect x="115" y="345" width="30" height="35" fill="#93c5fd" rx="2"/>
  <rect x="70" y="395" width="30" height="35" fill="#93c5fd" rx="2"/>
  <rect x="115" y="395" width="30" height="35" fill="#93c5fd" rx="2"/>
  <rect x="93" y="435" width="34" height="45" fill="#64748b" rx="2"/>

  <!-- Building center-left -->
  <rect x="230" y="220" width="100" height="260" fill="#dde6f0" rx="4"/>
  <rect x="242" y="235" width="28" height="32" fill="#bfdbfe" rx="2"/>
  <rect x="290" y="235" width="28" height="32" fill="#bfdbfe" rx="2"/>
  <rect x="242" y="280" width="28" height="32" fill="#bfdbfe" rx="2"/>
  <rect x="290" y="280" width="28" height="32" fill="#bfdbfe" rx="2"/>
  <rect x="242" y="325" width="28" height="32" fill="#bfdbfe" rx="2"/>
  <rect x="290" y="325" width="28" height="32" fill="#bfdbfe" rx="2"/>
  <rect x="242" y="370" width="28" height="32" fill="#bfdbfe" rx="2"/>
  <rect x="290" y="370" width="28" height="32" fill="#bfdbfe" rx="2"/>
  <rect x="258" y="430" width="44" height="50" fill="#475569" rx="2"/>

  <!-- Building center (tall) -->
  <rect x="380" y="160" width="130" height="320" fill="#e0eaf8" rx="4"/>
  <rect x="393" y="175" width="32" height="36" fill="#93c5fd" rx="2"/>
  <rect x="443" y="175" width="32" height="36" fill="#93c5fd" rx="2"/>
  <rect x="393" y="225" width="32" height="36" fill="#93c5fd" rx="2"/>
  <rect x="443" y="225" width="32" height="36" fill="#93c5fd" rx="2"/>
  <rect x="393" y="275" width="32" height="36" fill="#93c5fd" rx="2"/>
  <rect x="443" y="275" width="32" height="36" fill="#93c5fd" rx="2"/>
  <rect x="393" y="325" width="32" height="36" fill="#93c5fd" rx="2"/>
  <rect x="443" y="325" width="32" height="36" fill="#93c5fd" rx="2"/>
  <rect x="393" y="375" width="32" height="36" fill="#93c5fd" rx="2"/>
  <rect x="443" y="375" width="32" height="36" fill="#93c5fd" rx="2"/>
  <rect x="419" y="435" width="52" height="45" fill="#475569" rx="2"/>

  <!-- Building right -->
  <rect x="570" y="260" width="110" height="220" fill="#cbd5e1" rx="4"/>
  <rect x="582" y="273" width="28" height="32" fill="#bfdbfe" rx="2"/>
  <rect x="628" y="273" width="28" height="32" fill="#bfdbfe" rx="2"/>
  <rect x="582" y="318" width="28" height="32" fill="#bfdbfe" rx="2"/>
  <rect x="628" y="318" width="28" height="32" fill="#bfdbfe" rx="2"/>
  <rect x="582" y="363" width="28" height="32" fill="#bfdbfe" rx="2"/>
  <rect x="628" y="363" width="28" height="32" fill="#bfdbfe" rx="2"/>
  <rect x="601" y="420" width="38" height="60" fill="#64748b" rx="2"/>

  <!-- Trees -->
  <ellipse cx="190" cy="460" rx="28" ry="24" fill="#86efac"/>
  <rect x="186" y="470" width="8" height="20" fill="#6b7280"/>
  <ellipse cx="355" cy="455" rx="24" ry="20" fill="#6ee7b7"/>
  <rect x="351" y="462" width="8" height="25" fill="#6b7280"/>
  <ellipse cx="540" cy="458" rx="26" ry="22" fill="#86efac"/>
  <rect x="536" y="466" width="8" height="22" fill="#6b7280"/>

  <!-- Map pin / notification bubble -->
  <circle cx="445" cy="100" r="32" fill="#3b86fc" opacity="0.15"/>
  <path d="M445 70 C432 70 422 80 422 93 C422 108 445 128 445 128 C445 128 468 108 468 93 C468 80 458 70 445 70 Z" fill="#3b86fc"/>
  <circle cx="445" cy="93" r="9" fill="white"/>

  <!-- Person 1 (left, with phone) -->
  <circle cx="310" cy="434" r="18" fill="#fbbf24"/>
  <rect x="295" y="452" width="30" height="40" fill="#3b82f6" rx="4"/>
  <rect x="304" y="459" width="12" height="18" fill="#1d4ed8" rx="2"/>
  <rect x="293" y="456" width="8" height="24" fill="#3b82f6" rx="2"/>
  <rect x="325" y="456" width="8" height="24" fill="#3b82f6" rx="2"/>
  <rect x="295" y="492" width="14" height="28" fill="#1e3a8c" rx="2"/>
  <rect x="311" y="492" width="14" height="28" fill="#1e3a8c" rx="2"/>

  <!-- Person 2 (right) -->
  <circle cx="490" cy="436" r="18" fill="#f9a8d4"/>
  <rect x="475" y="454" width="30" height="40" fill="#10b981" rx="4"/>
  <rect x="473" y="458" width="8" height="24" fill="#10b981" rx="2"/>
  <rect x="505" y="456" width="8" height="24" fill="#10b981" rx="2"/>
  <rect x="475" y="494" width="14" height="26" fill="#064e3b" rx="2"/>
  <rect x="491" y="494" width="14" height="26" fill="#064e3b" rx="2"/>

  <!-- Speech bubble -->
  <rect x="308" y="390" width="90" height="36" fill="white" rx="8" stroke="#3b86fc" stroke-width="2"/>
  <polygon points="340,426 352,426 346,438" fill="white" stroke="#3b86fc" stroke-width="1.5"/>
  <circle cx="325" cy="408" r="6" fill="#ef4444"/>
  <rect x="336" y="405" width="50" height="6" fill="#e2e8f0" rx="3"/>
  <rect x="336" y="414" width="36" height="5" fill="#e2e8f0" rx="3"/>
</svg>
